<?xml version="1.0" encoding="UTF-8" standalone="no"?>
<!-- Uploaded to: SVG Repo, www.svgrepo.com, Generator: SVG Repo Mixer Tools -->

<svg
   fill="#000000"
   width="800px"
   height="800px"
   viewBox="0 0 32 32"
   id="Outlined"
   version="1.1"
   sodipodi:docname="filled-star.svg"
   inkscape:version="1.3.2 (091e20ef0f, 2023-11-25)"
   xmlns:inkscape="http://www.inkscape.org/namespaces/inkscape"
   xmlns:sodipodi="http://sodipodi.sourceforge.net/DTD/sodipodi-0.dtd"
   xmlns="http://www.w3.org/2000/svg"
   xmlns:svg="http://www.w3.org/2000/svg">
  <defs
     id="defs1" />
  <sodipodi:namedview
     id="namedview1"
     pagecolor="#ffffff"
     bordercolor="#000000"
     borderopacity="0.25"
     inkscape:showpageshadow="2"
     inkscape:pageopacity="0.0"
     inkscape:pagecheckerboard="0"
     inkscape:deskcolor="#d1d1d1"
     inkscape:zoom="0.503125"
     inkscape:cx="304.09938"
     inkscape:cy="607.20497"
     inkscape:window-width="1920"
     inkscape:window-height="1011"
     inkscape:window-x="0"
     inkscape:window-y="0"
     inkscape:window-maximized="1"
     inkscape:current-layer="Outlined" />
  <title
     id="title1" />
  <g
     id="Fill">
    <path
       d="M 28.61,11.67 H 20 L 17.34,3.47 C 16.920093,2.1973942 15.119907,2.1973942 14.7,3.47 L 12,11.67 H 3.39 c -1.3409796,0.0031 -1.900508,1.71581 -0.82,2.51 l 7,5.07 -2.68,8.21 C 6.5980433,28.35747 7.2662365,29.278767 8.21,29.28 8.4953889,29.267666 8.7705436,29.170143 9,29 l 7,-5.07 7,5.07 c 0.236205,0.170386 0.518805,0.264586 0.81,0.27 0.943763,-0.0012 1.611957,-0.92253 1.32,-1.82 l -2.66,-8.21 7,-5.07 c 1.075277,-0.810084 0.486081,-2.522863 -0.86,-2.5 z m -5.98,14.65 -5.45,-4 z"
       id="path1"
       sodipodi:nodetypes="ccccccccccccccccccccc"
       style="fill:#d4aa00" />
  </g>
</svg>
